<?xml version="1.0" encoding="utf-8"?>
<!-- Generator: Adobe Illustrator 16.0.0, SVG Export Plug-In . SVG Version: 6.00 Build 0)  -->
<!DOCTYPE svg PUBLIC "-//W3C//DTD SVG 1.1//EN" "http://www.w3.org/Graphics/SVG/1.1/DTD/svg11.dtd">
<svg version="1.1" xmlns="http://www.w3.org/2000/svg" xmlns:xlink="http://www.w3.org/1999/xlink" x="0px" y="0px"
	 width="56.693px" height="56.693px" viewBox="0 0 56.693 56.693" enable-background="new 0 0 56.693 56.693" xml:space="preserve">
<g id="Layer_1">
</g>
<g id="Calque_2" display="none">
	<path display="inline" d="M40.43,19.739h-7.646v-5.014c0-1.884,1.248-2.322,2.127-2.322c0.877,0,5.396,0,5.396,0V4.125
		l-7.431-0.028c-8.248,0-10.125,6.174-10.125,10.125v5.518h-4.77v8.53h4.77c0,10.946,0,24.137,0,24.137h10.033c0,0,0-13.32,0-24.137
		h6.771L40.43,19.739z"/>
</g>
<g id="Calque_3" display="none">
	<path display="inline" d="M52.34,14.033c-1.736,0.771-3.605,1.292-5.566,1.525c2.002-1.199,3.538-3.098,4.262-5.362
		c-1.873,1.112-3.945,1.917-6.153,2.354c-1.769-1.883-4.287-3.062-7.074-3.062c-5.352,0-9.69,4.339-9.69,9.692
		c0,0.758,0.085,1.497,0.251,2.208c-8.055-0.405-15.196-4.263-19.977-10.126c-0.834,1.431-1.311,3.096-1.311,4.873
		c0,3.363,1.71,6.329,4.311,8.066c-1.587-0.05-3.083-0.487-4.389-1.212c-0.001,0.04-0.001,0.081-0.001,0.122
		c0,4.695,3.34,8.61,7.774,9.503c-0.813,0.22-1.669,0.339-2.553,0.339c-0.625,0-1.232-0.061-1.823-0.175
		c1.233,3.85,4.812,6.653,9.052,6.729c-3.317,2.602-7.495,4.15-12.036,4.15c-0.782,0-1.554-0.046-2.312-0.137
		c4.29,2.752,9.384,4.354,14.856,4.354c17.827,0,27.573-14.767,27.573-27.573c0-0.42-0.008-0.839-0.027-1.256
		C49.398,17.684,51.042,15.976,52.34,14.033z"/>
</g>
<g id="Calque_4" display="none">
	<path display="inline" d="M42.941,4.706H13.753c-5.07,0-9.195,4.124-9.195,9.193v9.712v19.478c0,5.069,4.125,9.192,9.195,9.192
		h29.189c5.068,0,9.192-4.123,9.192-9.192V23.61v-9.711C52.134,8.828,48.01,4.706,42.941,4.706z M45.578,10.188l1.052-0.003v1.047
		v7.018l-8.037,0.026l-0.027-8.064L45.578,10.188z M21.556,23.61c1.524-2.108,3.996-3.49,6.79-3.49c2.795,0,5.267,1.382,6.79,3.49
		c0.989,1.376,1.584,3.06,1.584,4.883c0,4.617-3.76,8.372-8.375,8.372c-4.617,0-8.374-3.755-8.374-8.372
		C19.973,26.669,20.565,24.986,21.556,23.61z M47.498,43.088c0,2.515-2.045,4.557-4.557,4.557H13.753
		c-2.515,0-4.56-2.042-4.56-4.557V23.61h7.103c-0.613,1.509-0.958,3.157-0.958,4.883c0,7.171,5.834,13.01,13.009,13.01
		c7.174,0,13.009-5.839,13.009-13.01c0-1.727-0.346-3.374-0.96-4.883h7.103V43.088z"/>
</g>
<g id="Calque_5" display="none">
	<g id="layer1" transform="translate(0,-540.36218)" display="inline">
		<path id="text2985" d="M28.348,544.959c-13.085,0-23.75,10.666-23.75,23.75c0,13.084,10.666,23.75,23.75,23.75
			c13.084,0,23.75-10.666,23.75-23.75C52.098,555.624,41.432,544.959,28.348,544.959z M28.348,550.48
			c10.1,0,18.224,8.129,18.224,18.229s-8.124,18.224-18.224,18.224s-18.229-8.124-18.229-18.224S18.248,550.48,28.348,550.48z
			 M28.842,556.544c-4.648-0.095-9.325,3.021-10.502,7.604c-1.214,3.987-0.878,8.572,1.235,12.187
			c1.833,2.884,5.226,4.557,8.621,4.516c2.333,0.086,4.77-0.164,6.888-1.154c0.974-0.922,0.274-2.383,0.546-3.521
			c0.087-0.743-0.621-1.578-1.396-1.222c-2.654,0.686-5.682,1.389-8.238,0.086c-2.236-1.321-2.824-4.166-2.742-6.58
			c0.014-2.351,0.837-5.002,3.054-6.153c2.316-1.176,5.067-0.579,7.322,0.427c1.056,0.138,1.833-0.843,2.012-1.778
			c0.371-0.796,0.779-1.577,1.11-2.393C34.382,557.147,31.601,556.482,28.842,556.544z"/>
	</g>
</g>
<g id="Calque_6">
	<path d="M52.096,9.426l-4.802-4.801L28.346,23.574L9.397,4.625L4.596,9.426l18.949,18.949L4.596,47.323l4.801,4.802l18.949-18.948
		l18.948,18.948l4.802-4.802L33.147,28.375L52.096,9.426z"/>
</g>
<g id="Calque_7" display="none">
	<path display="inline" d="M9.417,48.998h7.744v-7.743H9.417V48.998z M18.882,48.998h8.604v-7.743h-8.604V48.998z M9.417,39.532
		h7.744v-8.604H9.417V39.532z M18.882,39.532h8.604v-8.604h-8.604V39.532z M9.417,29.206h7.744v-7.744H9.417V29.206z M29.208,48.998
		h8.604v-7.743h-8.604V48.998z M18.882,29.206h8.604v-7.744h-8.604V29.206z M39.534,48.998h7.744v-7.743h-7.744V48.998z
		 M29.208,39.532h8.604v-8.604h-8.604V39.532z M19.741,16.301V8.556c0-0.233-0.084-0.435-0.254-0.605
		c-0.171-0.171-0.373-0.256-0.605-0.256H17.16c-0.233,0-0.435,0.085-0.604,0.256C16.385,8.121,16.3,8.323,16.3,8.556v7.745
		c0,0.232,0.085,0.434,0.256,0.604c0.169,0.171,0.371,0.256,0.604,0.256h1.721c0.233,0,0.435-0.084,0.605-0.256
		C19.657,16.735,19.741,16.533,19.741,16.301z M39.534,39.532h7.744v-8.604h-7.744V39.532z M29.208,29.206h8.604v-7.744h-8.604
		V29.206z M39.534,29.206h7.744v-7.744h-7.744V29.206z M40.392,16.301V8.556c0-0.233-0.085-0.435-0.255-0.605
		c-0.169-0.171-0.374-0.256-0.604-0.256h-1.723c-0.232,0-0.435,0.085-0.604,0.256c-0.17,0.17-0.255,0.372-0.255,0.605v7.745
		c0,0.232,0.085,0.434,0.255,0.604c0.17,0.171,0.372,0.256,0.604,0.256h1.723c0.229,0,0.435-0.084,0.604-0.256
		C40.307,16.735,40.392,16.533,40.392,16.301z M50.718,14.579v34.419c0,0.932-0.339,1.738-1.02,2.421
		c-0.682,0.68-1.49,1.021-2.42,1.021H9.417c-0.932,0-1.739-0.341-2.42-1.021c-0.681-0.683-1.022-1.489-1.022-2.421V14.579
		c0-0.933,0.341-1.738,1.022-2.42c0.682-0.682,1.488-1.021,2.42-1.021h3.442V8.556c0-1.184,0.421-2.196,1.264-3.039
		s1.856-1.264,3.038-1.264h1.721c1.184,0,2.197,0.421,3.038,1.264c0.843,0.843,1.265,1.855,1.265,3.039v2.582H33.51V8.556
		c0-1.184,0.419-2.196,1.266-3.039c0.842-0.843,1.853-1.264,3.036-1.264h1.723c1.181,0,2.194,0.421,3.036,1.264
		c0.844,0.843,1.265,1.855,1.265,3.039v2.582h3.443c0.93,0,1.738,0.339,2.42,1.021C50.379,12.841,50.718,13.646,50.718,14.579z"/>
</g>
<g id="Calque_8" display="none">
	<g id="TabBar-Icons" display="inline">
		<g id="Hamburger">
			<path d="M4.596,9.164h47.725V16.8H4.596V9.164z M4.596,24.436h47.725v7.633H4.596V24.436z M4.596,39.706h47.725v7.636H4.596
				V39.706z"/>
		</g>
	</g>
</g>
<g id="Calque_9" display="none">
	<g display="inline">
		<path d="M51.197,24.33H44.02v-7.175c0-0.546-0.443-0.992-0.99-0.992h-2.043c-0.551,0-0.995,0.445-0.995,0.992v7.175h-7.176
			c-0.547,0-0.992,0.446-0.992,0.995v2.043c0,0.549,0.445,0.993,0.992,0.993h7.176v7.178c0,0.548,0.444,0.992,0.995,0.992h2.043
			c0.547,0,0.99-0.444,0.99-0.992V28.36h7.177c0.546,0,0.992-0.444,0.992-0.993v-2.043C52.189,24.775,51.743,24.33,51.197,24.33z"/>
		<path d="M27.082,30.622c-1.51-1.069-2.882-2.636-2.905-3.119c0-0.877,0.079-1.296,2.045-2.829
			c2.543-1.991,3.943-4.608,3.943-7.374c0-2.507-0.766-4.735-2.07-6.3h1.012c0.209,0,0.414-0.065,0.581-0.188l2.823-2.045
			c0.351-0.252,0.498-0.7,0.363-1.109c-0.134-0.409-0.513-0.688-0.943-0.688H19.306c-1.381,0-2.785,0.244-4.162,0.717
			c-4.601,1.586-7.818,5.507-7.818,9.532c0,5.702,4.417,10.024,10.323,10.16c-0.116,0.452-0.175,0.898-0.175,1.334
			c0,0.878,0.223,1.71,0.681,2.515c-0.053,0-0.104,0-0.162,0c-5.628,0-10.709,2.762-12.638,6.872
			c-0.502,1.068-0.758,2.149-0.758,3.216c0,1.038,0.266,2.036,0.789,2.974c1.212,2.169,3.815,3.852,7.334,4.739
			c1.815,0.459,3.767,0.693,5.793,0.693c1.821,0,3.557-0.235,5.162-0.699c5.004-1.453,8.239-5.137,8.239-9.39
			C31.913,35.555,30.601,33.112,27.082,30.622z M11.136,39.962c0-2.968,3.771-5.571,8.069-5.571h0.116
			c0.935,0.012,1.847,0.148,2.708,0.413c0.295,0.203,0.579,0.397,0.853,0.583c1.991,1.357,3.306,2.252,3.672,3.688
			c0.087,0.362,0.13,0.724,0.13,1.075c0,3.696-2.757,5.569-8.195,5.569C14.365,45.719,11.136,43.192,11.136,39.962z M15.047,11.916
			c0.671-0.767,1.551-1.172,2.539-1.172l0.112,0.001c2.79,0.082,5.46,3.192,5.951,6.933c0.276,2.094-0.189,4.063-1.243,5.263
			c-0.674,0.769-1.542,1.174-2.568,1.174c0,0,0,0-0.002,0h-0.046c-2.732-0.084-5.46-3.312-5.948-7.047
			C13.568,14.979,14.008,13.102,15.047,11.916z"/>
	</g>
</g>
</svg>
