<?xml version="1.0" encoding="utf-8"?>
<!-- Generator: Adobe Illustrator 16.0.0, SVG Export Plug-In . SVG Version: 6.00 Build 0)  -->
<!DOCTYPE svg PUBLIC "-//W3C//DTD SVG 1.1//EN" "http://www.w3.org/Graphics/SVG/1.1/DTD/svg11.dtd">
<svg version="1.1" xmlns="http://www.w3.org/2000/svg" xmlns:xlink="http://www.w3.org/1999/xlink" x="0px" y="0px" width="137px"
	 height="137.667px" viewBox="0 0 137 137.667" enable-background="new 0 0 137 137.667" xml:space="preserve">
<g id="Layer_1" display="none">
	<g display="inline">
		<rect x="-31" y="-29.333" width="200" height="200.002"/>
		<text transform="matrix(1 0 0 1 -16.8394 153.3096)" fill="#FFFFFF" font-family="'Nyala-Regular'" font-size="35.1866">Guillemoto.io</text>
		<g>
			<defs>
				<circle id="SVGID_1_" cx="69.167" cy="50.403" r="65.262"/>
			</defs>
			<use xlink:href="#SVGID_1_"  overflow="visible" fill="#FAFCFC"/>
			<clipPath id="SVGID_2_">
				<use xlink:href="#SVGID_1_"  overflow="visible"/>
			</clipPath>
			<g clip-path="url(#SVGID_2_)">
				<path d="M56.515,24.735c0,0-1.527-0.815-3.182-1.322c-2.138-0.655-4.138-1.134-5.654-1.266
					c-1.672-0.146-2.716-0.386-3.396-0.477c-0.571-0.075-1.433-0.265-0.73-0.838c0.875-0.709,1.258-0.771,2.262-1.122
					c1.169-0.409,5.267-0.737,6.117-0.525c0.851,0.213,3.868,0.485,5.178,0.394c1.308-0.093,3.577-0.418,5.132-0.873
					c1.555-0.455,4.05-0.878,4.621-0.958c1.261-0.175,3.739,0.065,5.074,0.369c1.811,0.411,5.999,2.732,7.197,5.554
					c1.824,4.304,1.846,9.479,1.764,10.483c-0.077,1.007-0.67,11.238-0.317,14.876c0.214,2.23,0.197,4.539,0.973,9.336
					c0.563,3.513,0.994,6.875,1.537,9.313c0.244,1.108,1.286,4.951,2.034,6.458c0.555,1.117,2.697,5.634,3.738,7.095
					c0.898,1.255,2.677,4.362,4.9,8.384c0.592,1.069,2.642,6.181,3.001,10.108c0.153,1.685,0.597,4.784,0.418,7.446
					c-0.265,3.961-0.11,8.926-0.287,11.153c-0.177,2.23-0.094,5.71,0.181,7.683c0.279,1.975,1.609,3.747,1.581,4.105
					c-0.029,0.359-0.403,1.013-1.017,0.527c-0.613-0.483-1.229-2.588-1.658-3.563c-0.429-0.976-0.973-2.318-1.161-2.696
					c-0.187-0.373-0.588-0.771-0.958,0.218c-0.367,0.978-1.174,1.134-1.177,2.071c-0.003,0.942,0.439,2.206-0.244,2.584
					c-0.68,0.382-1.324,0.296-1.672-0.35c-0.243-0.448-0.633-1.1-0.633-1.1l-0.905,2.28c0,0-1.315,2.57-1.938,3.671
					c-0.563,0.996-1.061,1.933-2.785,4.707c-1.437,2.314-1.718,2.536-2.019,2.656c-0.297,0.121-0.997,0.31-1.292-0.103
					c-0.632-0.871-0.308-0.677-0.803-1.73c-0.495-1.051-0.895-2.095-1.707-2.81c-0.811-0.718-1.486-1.243-3.322-2.15
					c-1.743-0.854-5.057-3.034-7.222-4.659c-3.073-2.308-6.528-6.551-7.83-8.279c-1.763-2.349-4.533-7.455-5.287-9.113
					c-1.246-2.74-2.798-7.143-3.157-9.126c-0.873-4.772-1.128-7.478-1.244-8.927c-0.143-1.867-0.258-5.393-0.203-8.022
					c0.078-3.959,1.124-10.37,1.38-11.895c0.253-1.491,1.687-6.569,2.169-7.969c1.038-3.01,1.991-4.689,2.646-5.895
					c1.265-2.327,1.625-2.733,2.733-4.398c1.005-1.515,2.444-3.665,3.112-5.707c0.669-2.045,1.082-3.06,1.558-5.301
					c0.594-2.803,1.193-8.013,1.008-9.331c-0.185-1.316-0.731-4.326-2.894-6.479c-1.443-1.438-1.684-1.81-3.325-3.006
					C57.569,25.312,56.515,24.735,56.515,24.735z"/>
				<circle fill="#FFFFFF" cx="67.845" cy="24.068" r="2.639"/>
				<path fill="#FFFFFF" d="M70.162,24.148c0,0,1.762,0.526,2.715,1.304c0.588,0.475,1.188,0.871,1.981,1.616
					c0.983,0.916,1.708,1.425,1.798,1.16c0.26-0.768-0.926-1.948-1.696-2.721c-0.505-0.505-1.195-1.126-1.699-1.497
					c-0.493-0.361-2.46-1.463-2.974-1.745c-0.229-0.125-1.403-0.444-1.403-0.444L70.162,24.148z"/>
				<circle cx="67.846" cy="24.068" r="1.516"/>
				<path fill="none" stroke="#000000" stroke-miterlimit="10" d="M25.943,60.689"/>
				<path fill="#FFFFFF" d="M65.647,59.572c0.234,1.377,1.021,3.47,1.508,4.502c1.074,2.275,2.832,5.033,5.378,8.503
					c1.157,1.573,3.05,4.543,3.699,5.59c0.914,1.466,3.396,4.851,4.217,7.235c0.229,0.661,3.011,6.996,4.112,12.075
					c0.798,3.687,1.797,6.354,2.54,14.169c0.237,2.484,0.996,10.683,1.742,13.063c1.039,3.323,1.824,12.015,1.824,12.015
					s3.777,7.473,4.504,7.98c0.73,0.508-8.829-1.669-9.934-1.816c-1.104-0.15-0.56,3.189-0.56,3.189s-0.995,0.348-2.465-0.054
					c-1.468-0.402-1.162-1.255-3.025-1.547c-1.86-0.284,0.413-0.978,0.048-2.089c-0.365-1.121-1.207-2-2.278-3.745
					c-1.068-1.749-6.769-11.476-7.966-12.982c-1.199-1.503-6.861-11.861-8.512-16.196c-1.845-4.838-3.125-10.624-3.425-13.957
					c-0.167-1.875-0.446-6.197-0.109-10.253c0.334-4.055,0.491-6.717,1.528-11.443c1.213-5.517,2.459-8.378,3.857-11.891
					c0.975-2.446,1.285-3.129,1.982-4.429c0.211-0.396,0.734-0.796,0.982-0.063C65.479,57.973,65.49,58.636,65.647,59.572z"/>
			</g>
		</g>
	</g>
</g>
<g id="Layer_2" display="none">
	<g display="inline">
		<text transform="matrix(1 0 0 1 -18.0381 155.8096)" font-family="'Nyala-Regular'" font-size="35.684">Guillemoto.io</text>
		<g>
			<defs>
				<circle id="SVGID_3_" cx="69.185" cy="51.449" r="66.186"/>
			</defs>
			<use xlink:href="#SVGID_3_"  overflow="visible" fill="#FAFCFC"/>
			<clipPath id="SVGID_4_">
				<use xlink:href="#SVGID_3_"  overflow="visible"/>
			</clipPath>
			<g clip-path="url(#SVGID_4_)">
				<path d="M56.354,25.418c0,0-1.551-0.826-3.229-1.342c-2.168-0.664-4.195-1.149-5.732-1.283
					c-1.697-0.148-2.756-0.393-3.445-0.484c-0.579-0.075-1.453-0.269-0.74-0.85c0.887-0.72,1.275-0.781,2.293-1.138
					c1.188-0.415,5.342-0.748,6.205-0.532c0.861,0.215,3.922,0.492,5.252,0.4c1.324-0.096,3.627-0.426,5.203-0.887
					s4.107-0.891,4.686-0.971c1.281-0.178,3.793,0.066,5.146,0.374c1.836,0.416,6.084,2.771,7.299,5.632
					c1.852,4.365,1.873,9.613,1.789,10.631c-0.078,1.021-0.68,11.397-0.32,15.087c0.217,2.261,0.199,4.603,0.984,9.468
					c0.572,3.563,1.01,6.972,1.559,9.444c0.248,1.124,1.305,5.022,2.064,6.549c0.563,1.134,2.734,5.715,3.791,7.195
					c0.91,1.272,2.715,4.426,4.969,8.501c0.6,1.086,2.68,6.27,3.043,10.253c0.156,1.708,0.605,4.851,0.424,7.553
					c-0.268,4.016-0.111,9.051-0.291,11.312s-0.094,5.789,0.184,7.789c0.283,2.004,1.633,3.802,1.604,4.165
					s-0.408,1.026-1.031,0.532c-0.621-0.488-1.246-2.622-1.682-3.612c-0.436-0.988-0.986-2.35-1.178-2.733
					c-0.188-0.381-0.596-0.782-0.971,0.219c-0.373,0.993-1.191,1.151-1.193,2.103c-0.004,0.956,0.445,2.236-0.248,2.62
					c-0.689,0.387-1.342,0.299-1.695-0.354c-0.246-0.454-0.643-1.114-0.643-1.114l-0.918,2.313c0,0-1.334,2.604-1.965,3.722
					c-0.568,1.009-1.074,1.96-2.824,4.772c-1.455,2.348-1.742,2.572-2.047,2.694c-0.301,0.124-1.012,0.313-1.311-0.104
					c-0.641-0.884-0.313-0.686-0.813-1.753c-0.504-1.067-0.908-2.127-1.732-2.851c-0.822-0.729-1.508-1.262-3.369-2.181
					c-1.768-0.866-5.127-3.077-7.324-4.725c-3.115-2.341-6.621-6.644-7.939-8.398c-1.787-2.38-4.596-7.561-5.361-9.241
					c-1.264-2.778-2.838-7.244-3.201-9.254c-0.887-4.841-1.146-7.585-1.262-9.055c-0.145-1.893-0.262-5.468-0.207-8.136
					c0.08-4.015,1.141-10.517,1.4-12.063c0.256-1.512,1.711-6.662,2.199-8.08c1.053-3.053,2.02-4.757,2.684-5.979
					c1.283-2.361,1.648-2.771,2.771-4.461c1.02-1.535,2.479-3.716,3.156-5.786c0.68-2.074,1.098-3.104,1.58-5.377
					c0.602-2.842,1.209-8.126,1.023-9.463c-0.188-1.334-0.742-4.387-2.936-6.57c-1.463-1.458-1.707-1.836-3.371-3.048
					C57.421,26.002,56.354,25.418,56.354,25.418z"/>
				<path fill="#FFFFFF" d="M70.511,24.955c-0.117,1.472-1.404,2.57-2.881,2.454c-1.471-0.118-2.57-1.407-2.453-2.881
					c0.115-1.474,1.408-2.572,2.881-2.456C69.53,22.19,70.63,23.479,70.511,24.955z"/>
				<path fill="#FFFFFF" d="M70.192,24.821c0,0,1.787,0.535,2.754,1.323c0.596,0.48,1.205,0.883,2.01,1.638
					c0.998,0.929,1.732,1.445,1.822,1.178c0.264-0.779-0.939-1.976-1.721-2.76c-0.512-0.513-1.211-1.142-1.723-1.518
					c-0.5-0.367-2.494-1.484-3.016-1.77c-0.232-0.128-1.422-0.45-1.422-0.45L70.192,24.821z"/>
				<circle cx="67.844" cy="24.741" r="1.537"/>
				<path fill="none" stroke="#000000" stroke-miterlimit="10" d="M25.35,61.88"/>
				<path fill="#FFFFFF" d="M65.614,60.746c0.238,1.397,1.035,3.521,1.529,4.566c1.09,2.309,2.871,5.105,5.455,8.623
					c1.172,1.597,3.092,4.608,3.752,5.67c0.926,1.486,3.443,4.918,4.275,7.337c0.23,0.67,3.055,7.097,4.17,12.245
					c0.809,3.738,1.822,6.447,2.576,14.371c0.24,2.518,1.01,10.833,1.766,13.247c1.055,3.37,1.852,12.183,1.852,12.183
					s3.83,7.58,4.566,8.094c0.742,0.515-8.953-1.691-10.074-1.841c-1.119-0.151-0.566,3.233-0.566,3.233s-1.01,0.352-2.5-0.055
					c-1.488-0.407-1.178-1.273-3.068-1.567c-1.887-0.288,0.42-0.992,0.049-2.12c-0.371-1.135-1.225-2.028-2.311-3.799
					c-1.084-1.771-6.863-11.636-8.078-13.164c-1.217-1.523-6.957-12.029-8.633-16.424c-1.871-4.907-3.168-10.775-3.473-14.156
					c-0.17-1.901-0.453-6.285-0.111-10.397c0.34-4.112,0.498-6.813,1.551-11.605c1.23-5.595,2.494-8.496,3.912-12.06
					c0.988-2.48,1.303-3.173,2.01-4.49c0.213-0.401,0.744-0.809,0.996-0.063C65.444,59.125,65.454,59.799,65.614,60.746z"/>
			</g>
			<use xlink:href="#SVGID_3_"  overflow="visible" fill="none" stroke="#000000" stroke-miterlimit="10"/>
		</g>
	</g>
</g>
<g id="Layer_3" display="none">
	<text transform="matrix(1 0 0 1 -18.0381 155.8096)" display="inline" font-family="'Nyala-Regular'" font-size="35.684">Guillemoto.io</text>
	<g display="inline">
		<defs>
			<circle id="SVGID_5_" cx="69.185" cy="51.449" r="66.186"/>
		</defs>
		<use xlink:href="#SVGID_5_"  overflow="visible" fill="#FAFCFC"/>
		<clipPath id="SVGID_6_">
			<use xlink:href="#SVGID_5_"  overflow="visible"/>
		</clipPath>
		<g clip-path="url(#SVGID_6_)">
			<path d="M56.354,25.418c0,0-1.55-0.826-3.229-1.342c-2.168-0.664-4.195-1.149-5.732-1.283c-1.696-0.148-2.755-0.393-3.444-0.484
				c-0.58-0.075-1.454-0.269-0.74-0.85c0.887-0.72,1.274-0.781,2.293-1.138c1.187-0.415,5.341-0.748,6.204-0.532
				c0.861,0.215,3.923,0.492,5.252,0.4c1.325-0.096,3.627-0.426,5.203-0.887c1.577-0.461,4.108-0.891,4.687-0.971
				c1.28-0.178,3.793,0.066,5.146,0.374c1.835,0.416,6.083,2.771,7.298,5.632c1.852,4.365,1.873,9.613,1.789,10.631
				c-0.077,1.021-0.679,11.397-0.32,15.087c0.217,2.261,0.199,4.603,0.985,9.468c0.572,3.563,1.009,6.972,1.558,9.444
				c0.248,1.124,1.305,5.022,2.064,6.549c0.563,1.134,2.735,5.715,3.791,7.195c0.911,1.272,2.715,4.426,4.97,8.501
				c0.6,1.086,2.68,6.27,3.043,10.253c0.155,1.708,0.604,4.851,0.424,7.553c-0.269,4.016-0.111,9.051-0.291,11.312
				c-0.181,2.261-0.095,5.789,0.184,7.789c0.283,2.004,1.633,3.802,1.604,4.165s-0.409,1.026-1.031,0.532
				c-0.622-0.488-1.247-2.622-1.683-3.612c-0.435-0.988-0.985-2.35-1.177-2.733c-0.188-0.381-0.597-0.782-0.971,0.219
				c-0.373,0.993-1.192,1.151-1.194,2.103c-0.003,0.956,0.446,2.236-0.247,2.62c-0.689,0.387-1.343,0.299-1.695-0.354
				c-0.247-0.454-0.644-1.114-0.644-1.114l-0.918,2.313c0,0-1.333,2.604-1.965,3.722c-0.568,1.009-1.074,1.96-2.823,4.772
				c-1.456,2.348-1.743,2.572-2.047,2.694c-0.302,0.124-1.013,0.313-1.311-0.104c-0.641-0.884-0.313-0.686-0.813-1.753
				c-0.503-1.067-0.907-2.127-1.731-2.851c-0.822-0.729-1.508-1.262-3.37-2.181c-1.768-0.866-5.127-3.077-7.323-4.725
				c-3.116-2.341-6.621-6.644-7.94-8.398c-1.787-2.38-4.596-7.561-5.361-9.241c-1.264-2.778-2.838-7.244-3.201-9.254
				c-0.887-4.841-1.146-7.585-1.262-9.055c-0.145-1.893-0.262-5.468-0.206-8.136c0.079-4.015,1.14-10.517,1.399-12.063
				c0.257-1.512,1.711-6.662,2.2-8.08c1.053-3.053,2.019-4.757,2.684-5.979c1.282-2.361,1.647-2.771,2.771-4.461
				c1.02-1.535,2.479-3.716,3.156-5.786c0.679-2.074,1.097-3.104,1.579-5.377c0.602-2.842,1.209-8.126,1.023-9.463
				c-0.188-1.334-0.742-4.387-2.936-6.57c-1.463-1.458-1.707-1.836-3.371-3.048C57.422,26.002,56.354,25.418,56.354,25.418z"/>
			<circle fill="#FFFFFF" cx="67.844" cy="24.742" r="2.676"/>
			<path fill="#FFFFFF" d="M70.192,24.821c0,0,1.788,0.535,2.755,1.323c0.596,0.48,1.204,0.883,2.01,1.638
				c0.997,0.929,1.731,1.445,1.822,1.178c0.263-0.779-0.94-1.976-1.721-2.76c-0.513-0.513-1.212-1.142-1.724-1.518
				c-0.499-0.367-2.494-1.484-3.015-1.77c-0.232-0.128-1.423-0.45-1.423-0.45L70.192,24.821z"/>
			<circle cx="67.844" cy="24.741" r="1.537"/>
			<path fill="none" stroke="#000000" stroke-miterlimit="10" d="M25.35,61.88"/>
			<path fill="#FFFFFF" d="M65.614,60.746c0.238,1.397,1.035,3.521,1.529,4.566c1.09,2.309,2.872,5.105,5.455,8.623
				c1.173,1.597,3.093,4.608,3.752,5.67c0.927,1.486,3.444,4.918,4.276,7.337c0.23,0.67,3.054,7.097,4.169,12.245
				c0.81,3.738,1.822,6.447,2.576,14.371c0.24,2.518,1.011,10.833,1.767,13.247c1.054,3.37,1.851,12.183,1.851,12.183
				s3.831,7.58,4.567,8.094c0.741,0.515-8.953-1.691-10.074-1.841c-1.119-0.151-0.567,3.233-0.567,3.233s-1.009,0.352-2.499-0.055
				c-1.489-0.407-1.179-1.273-3.068-1.567c-1.887-0.288,0.419-0.992,0.049-2.12c-0.371-1.135-1.226-2.028-2.311-3.799
				c-1.084-1.771-6.864-11.636-8.079-13.164c-1.217-1.523-6.957-12.029-8.632-16.424c-1.872-4.907-3.169-10.775-3.474-14.156
				c-0.17-1.901-0.453-6.285-0.11-10.397c0.339-4.112,0.497-6.813,1.55-11.605c1.23-5.595,2.494-8.496,3.912-12.06
				c0.988-2.48,1.303-3.173,2.01-4.49c0.213-0.401,0.744-0.809,0.996-0.063C65.444,59.125,65.454,59.799,65.614,60.746z"/>
		</g>
		<use xlink:href="#SVGID_5_"  overflow="visible" fill="none" stroke="#000000" stroke-width="4" stroke-miterlimit="10"/>
	</g>
</g>
<g id="Layer_4">
	<g>
		<defs>
			<circle id="SVGID_7_" cx="69" cy="69.449" r="66.186"/>
		</defs>
		<use xlink:href="#SVGID_7_"  overflow="visible" fill="#FAFCFC"/>
		<clipPath id="SVGID_8_">
			<use xlink:href="#SVGID_7_"  overflow="visible"/>
		</clipPath>
		<g clip-path="url(#SVGID_8_)">
			<path d="M56.17,43.418c0,0-1.549-0.826-3.229-1.342c-2.168-0.664-4.195-1.149-5.732-1.283c-1.695-0.148-2.754-0.393-3.443-0.484
				c-0.58-0.075-1.455-0.269-0.741-0.85c0.888-0.72,1.274-0.781,2.294-1.138c1.186-0.415,5.34-0.748,6.203-0.532
				c0.861,0.215,3.924,0.492,5.252,0.4c1.326-0.096,3.627-0.426,5.203-0.887c1.578-0.461,4.109-0.891,4.688-0.971
				c1.279-0.178,3.793,0.066,5.146,0.374c1.834,0.416,6.083,2.771,7.298,5.632c1.852,4.365,1.873,9.613,1.789,10.631
				c-0.078,1.021-0.68,11.397-0.32,15.087c0.217,2.261,0.199,4.603,0.984,9.468c0.572,3.563,1.01,6.972,1.559,9.444
				c0.248,1.124,1.305,5.022,2.064,6.549c0.563,1.134,2.734,5.715,3.791,7.195c0.91,1.272,2.715,4.426,4.969,8.501
				c0.6,1.086,2.68,6.27,3.043,10.253c0.156,1.708,0.605,4.851,0.424,7.553c-0.268,4.016-0.111,9.051-0.291,11.312
				s-0.094,5.789,0.184,7.789c0.283,2.004,1.633,3.802,1.604,4.165s-0.408,1.026-1.031,0.532c-0.621-0.488-1.246-2.622-1.682-3.612
				c-0.436-0.988-0.986-2.35-1.178-2.733c-0.188-0.381-0.596-0.782-0.971,0.219c-0.373,0.993-1.191,1.151-1.193,2.103
				c-0.004,0.956,0.445,2.236-0.248,2.62c-0.689,0.387-1.342,0.299-1.695-0.354c-0.246-0.454-0.643-1.114-0.643-1.114l-0.918,2.313
				c0,0-1.334,2.604-1.965,3.722c-0.568,1.009-1.074,1.96-2.824,4.772c-1.455,2.348-1.742,2.572-2.047,2.694
				c-0.301,0.124-1.012,0.313-1.311-0.104c-0.641-0.884-0.313-0.686-0.813-1.753c-0.504-1.067-0.908-2.127-1.732-2.851
				c-0.822-0.729-1.508-1.262-3.369-2.181c-1.769-0.866-5.128-3.077-7.323-4.725c-3.117-2.341-6.621-6.644-7.941-8.398
				c-1.787-2.38-4.596-7.561-5.361-9.241c-1.264-2.778-2.838-7.244-3.201-9.254c-0.887-4.841-1.145-7.585-1.262-9.055
				c-0.145-1.893-0.262-5.468-0.205-8.136c0.078-4.015,1.139-10.517,1.398-12.063c0.258-1.512,1.711-6.662,2.201-8.08
				c1.053-3.053,2.018-4.757,2.684-5.979c1.281-2.361,1.646-2.771,2.771-4.461c1.02-1.535,2.479-3.716,3.156-5.786
				c0.678-2.074,1.096-3.104,1.578-5.377c0.602-2.842,1.209-8.126,1.023-9.463c-0.188-1.334-0.742-4.387-2.936-6.57
				c-1.463-1.458-1.707-1.836-3.371-3.048C57.238,44.002,56.17,43.418,56.17,43.418z"/>
			<circle fill="#FFFFFF" cx="67.659" cy="42.742" r="2.676"/>
			<path fill="#FFFFFF" d="M70.008,42.821c0,0,1.789,0.535,2.756,1.323c0.596,0.48,1.203,0.883,2.01,1.638
				c0.997,0.929,1.731,1.445,1.821,1.178c0.264-0.779-0.939-1.976-1.72-2.76c-0.514-0.513-1.213-1.142-1.725-1.518
				c-0.498-0.367-2.494-1.484-3.014-1.77c-0.232-0.128-1.424-0.45-1.424-0.45L70.008,42.821z"/>
			<path d="M69.191,42.863c-0.064,0.846-0.807,1.479-1.654,1.409c-0.848-0.066-1.477-0.807-1.41-1.654
				c0.068-0.847,0.807-1.479,1.654-1.409C68.629,41.275,69.262,42.016,69.191,42.863z"/>
			<path fill="none" stroke="#000000" stroke-miterlimit="10" d="M25.166,79.88"/>
			<path fill="#FFFFFF" d="M65.43,78.746c0.238,1.397,1.035,3.521,1.529,4.566c1.09,2.309,2.873,5.105,5.455,8.623
				c1.174,1.597,3.093,4.608,3.753,5.67c0.926,1.486,3.443,4.918,4.275,7.337c0.23,0.67,3.055,7.097,4.17,12.245
				c0.809,3.738,1.822,6.447,2.576,14.371c0.24,2.518,1.01,10.833,1.766,13.247c1.055,3.37,1.852,12.183,1.852,12.183
				s3.83,7.58,4.566,8.094c0.742,0.515-8.953-1.691-10.074-1.841c-1.119-0.151-0.566,3.233-0.566,3.233s-1.01,0.352-2.5-0.055
				c-1.488-0.407-1.178-1.273-3.068-1.567c-1.887-0.288,0.42-0.992,0.049-2.12c-0.371-1.135-1.225-2.028-2.311-3.799
				c-1.084-1.771-6.864-11.636-8.079-13.164c-1.217-1.523-6.957-12.029-8.631-16.424c-1.873-4.907-3.17-10.775-3.475-14.156
				c-0.17-1.901-0.453-6.285-0.109-10.397c0.338-4.112,0.496-6.813,1.549-11.605c1.23-5.595,2.494-8.496,3.912-12.06
				c0.988-2.48,1.303-3.173,2.01-4.49c0.213-0.401,0.744-0.809,0.996-0.063C65.26,77.125,65.27,77.799,65.43,78.746z"/>
		</g>
		<use xlink:href="#SVGID_7_"  overflow="visible" fill="none" stroke="#000000" stroke-miterlimit="10"/>
	</g>
</g>
</svg>
