<?xml version="1.0" encoding="utf-8"?>
<!-- Generator: Adobe Illustrator 16.0.0, SVG Export Plug-In . SVG Version: 6.00 Build 0)  -->
<!DOCTYPE svg PUBLIC "-//W3C//DTD SVG 1.1//EN" "http://www.w3.org/Graphics/SVG/1.1/DTD/svg11.dtd">
<svg version="1.1" xmlns="http://www.w3.org/2000/svg" xmlns:xlink="http://www.w3.org/1999/xlink" x="0px" y="0px"
	 width="56.693px" height="56.693px" viewBox="0 0 56.693 56.693" enable-background="new 0 0 56.693 56.693" xml:space="preserve">
<g id="Layer_2">
</g>
<g id="Layer_3" display="none">
	<g id="viewer_x5F_text" display="inline">
		<line fill="none" stroke="#000000" stroke-width="2" x1="20.847" y1="21.931" x2="35.844" y2="21.931"/>
		<line fill="none" stroke="#000000" stroke-width="2" x1="20.847" y1="27.93" x2="35.844" y2="27.93"/>
		<line fill="none" stroke="#000000" stroke-width="2" x1="20.847" y1="33.929" x2="31.346" y2="33.929"/>
		<path d="M28.346,12.933c-14.998,0-23.997,14.905-23.997,14.905s8.999,15.09,23.997,15.09c14.997,0,23.996-14.997,23.996-14.997
			S43.344,12.933,28.346,12.933z M28.346,39.928c-13.123,0-20.247-11.998-20.247-11.998s7.124-11.998,20.247-11.998
			c13.122,0,20.246,11.998,20.246,11.998S41.469,39.928,28.346,39.928z"/>
	</g>
</g>
<g id="Layer_1" display="none">
	<g id="Layer_1_1_" display="inline">
	</g>
	<g id="Calque_2">
		<path display="inline" d="M40.43,19.739h-7.646v-5.014c0-1.885,1.248-2.322,2.127-2.322c0.877,0,5.396,0,5.396,0V4.125
			l-7.432-0.027c-8.248,0-10.125,6.174-10.125,10.125v5.518h-4.77v8.53h4.77c0,10.945,0,24.137,0,24.137h10.033
			c0,0,0-13.32,0-24.137h6.771L40.43,19.739z"/>
	</g>
	<g id="Calque_3" display="inline">
		<path d="M52.34,14.033c-1.735,0.771-3.604,1.292-5.565,1.525c2.002-1.199,3.538-3.099,4.262-5.362
			c-1.873,1.112-3.945,1.917-6.153,2.354c-1.769-1.883-4.286-3.062-7.073-3.062c-5.353,0-9.69,4.339-9.69,9.692
			c0,0.758,0.085,1.497,0.251,2.208c-8.055-0.405-15.196-4.264-19.977-10.126c-0.834,1.431-1.312,3.096-1.312,4.873
			c0,3.362,1.71,6.328,4.312,8.065c-1.587-0.05-3.083-0.487-4.39-1.212c-0.001,0.04-0.001,0.081-0.001,0.122
			c0,4.695,3.34,8.61,7.774,9.503c-0.813,0.22-1.669,0.339-2.553,0.339c-0.625,0-1.232-0.061-1.823-0.175
			c1.232,3.85,4.812,6.653,9.052,6.729c-3.316,2.603-7.495,4.15-12.036,4.15c-0.782,0-1.554-0.046-2.312-0.137
			c4.29,2.752,9.384,4.354,14.855,4.354c17.827,0,27.573-14.767,27.573-27.572c0-0.421-0.008-0.84-0.027-1.257
			C49.398,17.684,51.042,15.976,52.34,14.033z"/>
	</g>
	<g id="Calque_4">
		<path display="inline" d="M42.941,4.706H13.753c-5.069,0-9.194,4.124-9.194,9.193v9.712v19.478c0,5.069,4.125,9.192,9.194,9.192
			h29.189c5.067,0,9.191-4.123,9.191-9.192V23.61v-9.711C52.134,8.828,48.01,4.706,42.941,4.706z M45.578,10.188l1.052-0.003v1.047
			v7.018l-8.037,0.026l-0.026-8.064L45.578,10.188z M21.556,23.61c1.523-2.108,3.996-3.49,6.79-3.49c2.795,0,5.267,1.382,6.79,3.49
			c0.988,1.376,1.584,3.06,1.584,4.883c0,4.617-3.761,8.372-8.375,8.372c-4.617,0-8.374-3.755-8.374-8.372
			C19.973,26.669,20.565,24.986,21.556,23.61z M47.498,43.088c0,2.516-2.045,4.558-4.557,4.558H13.753
			c-2.515,0-4.56-2.042-4.56-4.558V23.61h7.103c-0.612,1.509-0.958,3.157-0.958,4.883c0,7.171,5.834,13.01,13.01,13.01
			c7.174,0,13.009-5.839,13.009-13.01c0-1.727-0.347-3.374-0.96-4.883h7.103L47.498,43.088L47.498,43.088z"/>
	</g>
	<g id="Calque_5">
		<g id="layer1" transform="translate(0,-540.36218)" display="inline">
			<path id="text2985" d="M28.348,544.959c-13.085,0-23.75,10.666-23.75,23.75s10.666,23.75,23.75,23.75s23.75-10.666,23.75-23.75
				C52.098,555.624,41.432,544.959,28.348,544.959z M28.348,550.48c10.1,0,18.224,8.129,18.224,18.229
				c0,10.101-8.124,18.225-18.224,18.225c-10.101,0-18.229-8.124-18.229-18.225C10.119,558.609,18.248,550.48,28.348,550.48z
				 M28.842,556.544c-4.647-0.095-9.324,3.021-10.502,7.604c-1.214,3.987-0.878,8.572,1.235,12.187
				c1.833,2.885,5.226,4.558,8.621,4.517c2.333,0.086,4.77-0.164,6.888-1.154c0.975-0.922,0.274-2.383,0.546-3.521
				c0.087-0.743-0.621-1.578-1.396-1.223c-2.654,0.687-5.682,1.39-8.238,0.086c-2.236-1.32-2.824-4.166-2.742-6.58
				c0.015-2.351,0.837-5.002,3.055-6.152c2.315-1.176,5.066-0.579,7.321,0.427c1.057,0.138,1.833-0.843,2.013-1.778
				c0.371-0.796,0.778-1.577,1.109-2.393C34.382,557.147,31.601,556.482,28.842,556.544z"/>
		</g>
	</g>
	<g id="Calque_6">
		<path display="inline" d="M52.096,9.427l-4.803-4.802L28.346,23.574L9.397,4.625L4.596,9.427l18.948,18.948L4.596,47.323
			l4.801,4.802l18.949-18.947l18.947,18.947l4.803-4.802L33.147,28.375L52.096,9.427z"/>
	</g>
	<g id="Calque_7">
		<path display="inline" d="M9.417,48.998h7.744v-7.743H9.417V48.998z M18.882,48.998h8.604v-7.743h-8.604V48.998z M9.417,39.532
			h7.744v-8.604H9.417V39.532z M18.882,39.532h8.604v-8.604h-8.604V39.532z M9.417,29.206h7.744v-7.744H9.417V29.206z
			 M29.208,48.998h8.604v-7.743h-8.604V48.998z M18.882,29.206h8.604v-7.744h-8.604V29.206z M39.534,48.998h7.744v-7.743h-7.744
			V48.998z M29.208,39.532h8.604v-8.604h-8.604V39.532z M19.741,16.302V8.556c0-0.233-0.084-0.436-0.254-0.605
			c-0.171-0.171-0.373-0.256-0.605-0.256H17.16c-0.233,0-0.435,0.085-0.604,0.256C16.385,8.121,16.3,8.323,16.3,8.556v7.745
			c0,0.231,0.085,0.434,0.257,0.604c0.169,0.171,0.37,0.256,0.604,0.256h1.721c0.233,0,0.436-0.084,0.605-0.256
			C19.657,16.735,19.741,16.533,19.741,16.302z M39.534,39.532h7.744v-8.604h-7.744V39.532z M29.208,29.206h8.604v-7.744h-8.604
			V29.206z M39.534,29.206h7.744v-7.744h-7.744V29.206z M40.392,16.302V8.556c0-0.233-0.085-0.436-0.255-0.605
			c-0.17-0.171-0.374-0.256-0.604-0.256H37.81c-0.232,0-0.436,0.085-0.604,0.256c-0.17,0.17-0.255,0.372-0.255,0.605v7.745
			c0,0.231,0.085,0.434,0.255,0.604c0.17,0.171,0.372,0.256,0.604,0.256h1.723c0.229,0,0.435-0.084,0.604-0.256
			C40.307,16.735,40.392,16.533,40.392,16.302z M50.718,14.579v34.419c0,0.933-0.339,1.738-1.02,2.421
			c-0.682,0.681-1.49,1.021-2.42,1.021H9.417c-0.932,0-1.738-0.341-2.42-1.021c-0.681-0.683-1.021-1.488-1.021-2.421V14.579
			c0-0.933,0.341-1.738,1.021-2.42c0.683-0.682,1.488-1.021,2.42-1.021h3.442V8.556c0-1.185,0.421-2.196,1.264-3.039
			c0.843-0.844,1.856-1.265,3.038-1.265h1.721c1.185,0,2.197,0.421,3.038,1.265c0.844,0.843,1.266,1.854,1.266,3.039v2.582H33.51
			V8.556c0-1.185,0.42-2.196,1.267-3.039c0.842-0.844,1.853-1.265,3.036-1.265h1.723c1.181,0,2.194,0.421,3.036,1.265
			c0.844,0.843,1.265,1.854,1.265,3.039v2.582h3.443c0.93,0,1.738,0.339,2.42,1.021C50.379,12.841,50.718,13.646,50.718,14.579z"/>
	</g>
	<g id="Calque_8">
		<g id="TabBar-Icons" display="inline">
			<g id="Hamburger">
				<path d="M4.596,9.164h47.725V16.8H4.596V9.164z M4.596,24.436h47.725v7.633H4.596V24.436z M4.596,39.706h47.725v7.636H4.596
					V39.706z"/>
			</g>
		</g>
	</g>
	<g id="Calque_9">
		<g display="inline">
			<path d="M51.197,24.33H44.02v-7.175c0-0.546-0.443-0.992-0.99-0.992h-2.043c-0.551,0-0.995,0.445-0.995,0.992v7.175h-7.176
				c-0.547,0-0.992,0.446-0.992,0.995v2.043c0,0.549,0.445,0.993,0.992,0.993h7.176v7.178c0,0.548,0.444,0.992,0.995,0.992h2.043
				c0.547,0,0.99-0.444,0.99-0.992V28.36h7.177c0.546,0,0.992-0.444,0.992-0.993v-2.043C52.189,24.775,51.743,24.33,51.197,24.33z"
				/>
			<path d="M27.082,30.622c-1.51-1.068-2.882-2.636-2.904-3.119c0-0.877,0.078-1.296,2.045-2.829
				c2.543-1.99,3.942-4.607,3.942-7.374c0-2.507-0.766-4.734-2.069-6.3h1.012c0.209,0,0.414-0.064,0.581-0.188l2.823-2.045
				c0.351-0.252,0.497-0.7,0.362-1.109C32.74,7.249,32.361,6.97,31.931,6.97H19.306c-1.382,0-2.785,0.243-4.162,0.717
				c-4.602,1.586-7.818,5.507-7.818,9.532c0,5.701,4.417,10.023,10.323,10.159c-0.116,0.452-0.175,0.898-0.175,1.334
				c0,0.878,0.223,1.71,0.681,2.516c-0.053,0-0.104,0-0.162,0c-5.628,0-10.709,2.762-12.638,6.872
				c-0.502,1.067-0.758,2.148-0.758,3.216c0,1.038,0.266,2.036,0.789,2.974c1.212,2.169,3.814,3.853,7.334,4.739
				c1.814,0.459,3.767,0.693,5.793,0.693c1.82,0,3.557-0.235,5.161-0.699c5.005-1.453,8.239-5.137,8.239-9.391
				C31.913,35.555,30.601,33.112,27.082,30.622z M11.136,39.962c0-2.968,3.771-5.57,8.068-5.57h0.116
				c0.935,0.012,1.847,0.147,2.708,0.413c0.295,0.202,0.579,0.396,0.853,0.583c1.991,1.356,3.307,2.252,3.673,3.688
				c0.087,0.362,0.13,0.724,0.13,1.075c0,3.696-2.757,5.569-8.195,5.569C14.365,45.719,11.136,43.192,11.136,39.962z M15.047,11.916
				c0.671-0.767,1.552-1.172,2.539-1.172l0.112,0.001c2.79,0.082,5.46,3.192,5.951,6.934c0.275,2.094-0.189,4.063-1.243,5.263
				c-0.674,0.769-1.542,1.174-2.568,1.174c0,0,0,0-0.002,0H19.79c-2.731-0.084-5.46-3.312-5.948-7.047
				C13.568,14.979,14.008,13.102,15.047,11.916z"/>
		</g>
	</g>
</g>
<g id="Layer_4">
	<g>
		<path d="M47.202,22.801c0-10.444-8.411-18.855-18.855-18.855c-10.444,0-18.855,8.411-18.855,18.855s18.855,29.946,18.855,29.946
			S47.202,33.245,47.202,22.801z M19.567,22.431c0-4.806,3.975-8.78,8.78-8.78c4.806,0,8.781,3.881,8.781,8.78
			c0,4.806-3.882,8.781-8.781,8.781C23.541,31.212,19.567,27.237,19.567,22.431z"/>
	</g>
</g>
<g id="Layer_5" display="none">
	<g id="Layer_1_2_" display="inline">
		<circle id="XMLID_1_" cx="28.249" cy="28.346" r="24.008"/>
	</g>
	<g id="Layer_2_1_" display="inline">
		<g id="XMLID_2_">
			<circle id="XMLID_8_" fill="#FFFFFF" cx="36.001" cy="25.261" r="2.997"/>
			<circle id="XMLID_4_" fill="#FFFFFF" cx="20.497" cy="25.261" r="2.997"/>
			<path id="XMLID_3_" fill="#FFFFFF" d="M37.904,27.782c-0.524,0.428-1.19,0.713-1.903,0.713s-1.38-0.285-1.902-0.713
				c-0.285,0.048-0.571,0.094-0.809,0.238c0.95,0.666,1.521,1.806,1.521,3.043v3.615c0,0.189,0,0.381-0.047,0.523h2.854
				c1.378,0,2.521-1.143,2.521-2.522v-2.377C40.139,28.971,39.14,27.925,37.904,27.782z"/>
			<path id="XMLID_9_" fill="#FFFFFF" d="M21.686,31.015c0-1.235,0.619-2.33,1.521-3.044c-0.238-0.095-0.523-0.189-0.808-0.237
				c-0.523,0.428-1.189,0.712-1.902,0.712c-0.714,0-1.379-0.285-1.903-0.712c-1.236,0.142-2.235,1.188-2.235,2.473v2.378
				c0,1.38,1.142,2.521,2.521,2.521h2.854c-0.048-0.188-0.048-0.331-0.048-0.523V31.015z"/>
			<path id="XMLID_5_" fill="#FFFFFF" d="M32.91,28.02c-0.523-0.38-1.142-0.618-1.808-0.714c-0.761,0.666-1.76,1.046-2.854,1.046
				c-1.094,0-2.092-0.428-2.853-1.046c-0.666,0.096-1.284,0.334-1.808,0.714c-0.951,0.666-1.522,1.806-1.522,3.043v3.615
				c0,0.189,0,0.381,0.048,0.523c0.285,1.808,1.807,3.233,3.709,3.233h4.946c1.901,0,3.425-1.426,3.709-3.233
				c0.049-0.191,0.049-0.334,0.049-0.523v-3.615C34.478,29.78,33.86,28.685,32.91,28.02z"/>
			<circle id="XMLID_6_" fill="#FFFFFF" cx="28.249" cy="23.55" r="4.47"/>
		</g>
	</g>
</g>
</svg>
